<svg xmlns="http://www.w3.org/2000/svg" xmlns:xlink="http://www.w3.org/1999/xlink" xmlns:serif="http://www.serif.com/" width="100%" height="100%" viewBox="0 0 50 53" version="1.1" xml:space="preserve" style="fill-rule:evenodd;clip-rule:evenodd;stroke-linejoin:round;stroke-miterlimit:1.41421;" class="svg replaced-svg">
    <g transform="matrix(1,0,0,1,-2449.41,-46.2127)">
        <g transform="matrix(9.69655,0,0,23.0274,5694.4,-503.89)">
            <g transform="matrix(0.706324,0,0,0.706324,-178.173,4.76479)">
                <g transform="matrix(0.429706,0,0,0.180944,-214.566,28.4222)">
                    <path d="M0,-7.101C0,-7.101 -1.359,-7.439 -2.416,-7.439C-2.416,-7.439 -12.949,-7.779 -15.895,0.678C-15.895,0.678 -13.138,-2.949 -7.513,-2.949C-7.513,-2.949 -3.889,-2.871 -2.229,-1.851L0,-7.101" style="fill:rgb(0,170,148);fill-rule:nonzero;"></path>
                </g>
                <g transform="matrix(0.429706,0,0,0.180944,-216.902,30.2662)">
                    <path d="M0,-11.966C0,-11.966 -1.245,-12.193 -2.076,-12.193C-2.076,-12.193 -10.156,-12.193 -10.798,-6.155C-10.798,-6.155 -11.1,-0.831 -4.606,0.227C-4.606,0.227 -6.946,-1.169 -6.946,-4.343C-6.946,-4.343 -7.211,-9.702 0,-11.966" style="fill:rgb(0,170,148);fill-rule:nonzero;"></path>
                </g>
                <g transform="matrix(0.429706,0,0,0.180944,-219.044,30.3689)">
                    <path d="M0,-7.928C0,-7.928 0.264,-5.891 2.869,-5.891C2.869,-5.891 3.851,-5.965 4.229,-6.041C4.605,-6.117 5.322,-6.266 5.738,-6.266C5.738,-6.266 8.531,-6.381 8.531,-3.701C8.531,-3.701 8.797,-0.34 3.813,-0.34C3.813,-0.34 -0.906,0 -0.906,-4.91C-0.906,-4.91 -0.943,-6.571 0,-7.928" style="fill:rgb(0,170,148);fill-rule:nonzero;"></path>
                </g>

               
            </g>
        </g>
    </g>
</svg>